<svg width="139" height="88" viewBox="0 0 139 88" fill="none" xmlns="http://www.w3.org/2000/svg">
<path id="Vector" fill-rule="evenodd" clip-rule="evenodd" d="M46.2532 83.3364L44.6575 83.2802L48.3158 62.5288L72.6484 62.5378L60.6345 73.8774C59.5361 74.8421 58.6645 75.4823 57.5527 76.4592C53.943 79.6306 51.7126 83.5807 46.2532 83.3364ZM71.9012 41.7621L90.4209 41.7431L90.4282 37.2723L72.0065 37.1306L71.9012 41.7621ZM48.7212 41.7621L67.1814 41.7617L67.197 37.1416L48.8545 37.1382L48.7212 41.7621ZM99.3196 46.4245C105.264 46.4245 111.209 46.4225 117.154 46.4245C129.135 46.4285 123.155 45.1554 128.028 39.5516C137.633 43.3789 137.2 57.9841 123.247 57.9752L51.9078 57.9662C40.2311 57.9662 27.8643 58.3565 16.2727 57.9216V41.7993C20.5652 41.6656 24.983 41.7634 29.2895 41.7624C37.4888 41.7607 34.663 40.2251 41.5517 48.6572C46.1403 54.274 43.9588 53.3207 55.3876 53.3207L93.3586 53.1636C95.8205 52.42 96.7448 47.4354 99.3196 46.4245ZM4.63774 37.9205C6.43561 37.814 10.5292 38.1827 11.5378 39.6441L11.5374 44.5412L4.63807 45.6486L4.63774 37.9205ZM16.2727 25.6425C35.4785 24.8379 56.4319 25.5929 75.8311 25.5929C84.2991 25.5929 96.7348 24.7674 104.208 26.9708C108.544 28.2496 120.168 34.4021 123.781 37.1223L121.543 41.7544C115.157 41.804 108.751 41.7744 102.364 41.7637C98.2146 41.7571 96.7391 40.9552 94.8076 43.8145C93.9227 45.1241 92.2234 48.6875 90.6204 48.6875H48.428C46.8668 48.6875 46.5721 47.5905 45.3994 46.1317C34.8706 33.0338 42.1389 37.9994 16.2747 37.0976L16.2727 25.6425ZM22.2885 11.0995C24.6963 14.1558 27.8338 17.6745 29.9064 21.0493L15.5289 20.8613L10.2706 4.78627C18.8154 4.78627 18.5708 6.3798 22.2885 11.0995ZM74.0914 21.036C61.6223 21.036 49.1529 21.036 36.6838 21.036C35.2579 20.8097 31.4533 15.2076 30.3916 13.8569C26.1423 8.45048 22.2608 1.81618 16.8254 0.542754C13.4242 -0.253841 7.27037 -0.254506 4.96389 1.08713C4.38042 4.2785 8.17196 13.3472 9.27273 16.6946C12.4885 26.4727 11.5374 23.2168 11.5374 34.2566C6.24208 33.6078 0.777325 30.6384 0.149743 34.8765C-0.21551 37.3459 0.145764 49.1753 0.607929 50.4132C3.53564 51.5352 7.99653 49.7094 11.3971 49.2951C11.774 52.2023 11.0833 58.5362 11.6949 60.6691C12.5226 63.5556 18.0084 62.5231 21.025 62.5228C27.8128 62.5228 37.0554 61.9994 43.5464 62.6316C39.7732 86.794 35.4647 88.288 46.695 87.9659C49.7206 87.8794 51.9583 87.4089 53.9971 85.8989L76.0446 65.8536C81.072 61.5964 79.6334 62.5218 86.7056 62.5228C97.2926 62.5245 125.958 63.8039 131.61 60.9616C140.816 56.3311 141.61 42.8541 132.926 36.9359C129.36 34.5055 124.728 32.2765 121.057 30.1273C101.711 18.8006 99.1402 21.036 74.0914 21.036Z" fill="#0077FF"/>
</svg>
