<svg width="131" height="98" viewBox="0 0 131 98" fill="none" xmlns="http://www.w3.org/2000/svg">
<path id="Vector" fill-rule="evenodd" clip-rule="evenodd" d="M93.823 84.2102C91.7936 67.59 114.887 65.3955 117.442 80.1756C118.671 87.2835 113.353 93.0596 107.59 93.9833C100.693 95.089 94.5326 90.0193 93.823 84.2102ZM68.9483 50.949C68.9483 55.1089 68.4456 57.4143 72.2642 56.4092C73.1147 52.3068 72.9043 52.7267 72.5695 48.406C70.1232 47.1497 68.9483 47.7532 68.9483 50.949ZM20.9904 77.9688C26.4744 75.3125 30.2248 83.895 24.6741 86.3541C19.4083 88.6874 15.0256 80.8579 20.9904 77.9688ZM14.4173 83.3887C15.8148 93.7915 32.3567 92.6173 31.1347 80.9431C30.0538 70.6182 12.8667 71.8445 14.4173 83.3887ZM103.888 77.877C110.045 75.4665 112.679 84.4783 107.42 86.4359C101.197 88.7518 98.5553 79.9648 103.888 77.877ZM104.134 73.8478C93.2162 75.7955 96.0929 92.6744 107.319 90.4266C111.475 89.5944 114.939 85.42 113.918 80.4141C113.072 76.2668 109.113 72.9597 104.134 73.8478ZM48.8078 77.9641C54.2459 75.3513 58.0831 83.8262 52.4878 86.3453C47.2644 88.6969 42.8031 80.8491 48.8078 77.9641ZM49.5221 73.7493C38.3629 75.3062 40.6046 92.0459 51.7895 90.5165C56.0405 89.9354 59.6375 86.074 58.9807 80.9551C58.4299 76.6612 54.4867 73.0565 49.5221 73.7493ZM79.0134 30.0832L90.5369 30.0756L91.7238 41.6232L78.8826 41.6299L79.0134 30.0832ZM72.8833 30.0835L75.0438 30.0832L75.0658 41.6299H72.756L72.8833 30.0835ZM68.9483 29.1853V42.3258C68.9483 44.8881 69.5189 45.4613 72.0731 45.4613H92.5343C97.0386 45.4613 95.7229 43.3151 95.0576 36.1384C94.2719 27.6679 94.9774 26.2356 90.8975 26.2356H72.0218C69.5611 26.2356 68.9483 26.6262 68.9483 29.1853ZM38.6569 83.3887C37.1569 67.1351 61.3053 65.5508 62.5038 80.9693C63.7762 97.3377 40.0494 98.4763 38.6569 83.3887ZM10.8024 82.9779C9.5715 67.2023 33.9306 65.4836 34.7229 81.4006C35.5221 97.4557 12.0068 98.4179 10.8024 82.9779ZM120.467 76.1277L127.077 76.146L127.2 86.1207L121.017 86.2841C121.557 80.6759 120.986 80.8888 120.467 76.1277ZM61.2767 70.139L86.7579 70.1302C85.1488 73.6462 84.0613 75.4283 83.496 80.0478L66.3391 80.0724C65.8738 78.1243 65.4356 76.1924 64.5115 74.5427C64.1462 73.8916 63.4061 72.7928 63.0292 72.3436C61.9131 71.0135 62.0291 71.5937 61.2767 70.139ZM33.4738 70.1504L39.9223 70.1214C38.7364 72.4511 38.2985 71.3848 36.907 74.3923L33.4738 70.1504ZM7.07897 80.0708L3.99223 79.9506L3.85421 72.3016C3.86239 69.3081 5.64218 70.1062 12.103 70.1315C10.9985 72.4045 8.48652 72.7414 7.07897 80.0708ZM125.075 70.9328C124.696 70.6586 122.541 67.8007 122.323 67.4597C121.246 65.7779 121.759 51.9402 121.821 49.3887L125.073 49.9893L125.075 70.9328ZM20.2679 60.1322L46.5385 60.1618L49.4809 66.2615L17.1249 66.1293L20.2679 60.1322ZM112.149 60.3896C108.912 58.8144 108.958 54.4634 112.153 53.0311L112.149 60.3896ZM60.6341 33.2947L61.3755 33.3089C62.241 34.319 61.8329 37.2287 61.8338 38.63C61.837 42.8886 62.3617 42.7848 61.024 43.6054C59.8598 42.9214 60.1977 43.4442 60.1553 41.5352L60.1688 35.7403C60.1679 35.3453 60.1547 34.497 60.2188 34.1405C60.3839 33.2206 60.0418 33.7509 60.6341 33.2947ZM51.6069 6.95347C52.6513 6.53546 53.1034 6.09411 54.0176 5.51112L54.1393 7.01151V21.5332H52.4303L51.6069 21.4915V6.95347ZM65.4714 11.2146C69.767 11.2143 74.0525 11.1225 78.2274 11.201C84.897 11.3266 82.3881 15.277 85.1891 16.9954C91.4609 18.6374 103.683 14.2987 106.247 20.3586C102.177 20.4691 88.8794 19.6271 86.4724 21.0644L86.2646 23.5033C89.1174 24.9882 93.3435 23.6692 96.8676 24.3986C97.5741 29.0408 98.571 42.7416 99.8594 45.6777C104.53 46.9589 112.481 47.9662 117.714 48.6785L117.913 63.4267C115.318 62.1913 115.888 62.4272 115.899 57.1087C115.903 54.7719 116.455 51.2307 115.463 49.3063C112.924 47.3908 109.341 49.8928 108.05 51.3288C105.851 53.7779 105.914 56.1427 106.373 59.8605C102.949 59.9009 99.8358 59.5078 101.039 63.4216C104.155 64.5444 108.317 62.997 113.354 65.3785C116.761 66.9896 119.434 69.5964 121.045 72.1972L117.829 72.3688C115.829 68.1484 107.608 64.811 100.774 67.0225C97.6901 68.0203 94.9564 70.1261 93.4526 71.9924C88.0189 78.7373 92.5711 80.0708 87.4797 80.0708C87.8702 74.7434 90.7529 70.3681 94.6184 67.4076C95.8845 66.4382 98.5855 65.3668 96.5274 63.3544C94.6423 61.5622 92.1284 64.587 90.9991 65.423C88.7436 67.0928 69.0011 66.2678 65.4667 66.2678V24.1989C67.5351 24.1989 69.6041 24.1876 71.6729 24.2065C73.7089 24.2251 75.9823 24.6756 76.2241 22.5742C76.6268 19.0769 68.2522 20.3836 65.6714 20.3836L65.4714 11.2146ZM100.704 24.2301C103.282 24.1611 110.124 25.2293 110.843 22.8935C111.709 20.0798 108.484 16.5266 107.312 15.5823C102.969 12.0844 93.391 13.3693 87.0937 13.3693C86.7208 11.3335 85.5556 9.9978 84.0733 8.93055C80.73 6.52316 65.9097 7.17335 62.1464 7.74279C60.2801 12.3336 63.2974 28.3629 61.024 29.4061C59.5969 28.7714 61.2921 26.0545 58.7924 23.2096C56.3093 20.3832 59.5963 4.27698 57.227 0.142044C54.726 -0.496793 53.6237 1.10267 50.338 3.2684C47.0195 5.45528 47.8218 5.90861 47.8307 10.707C47.8366 13.9412 47.947 17.3884 47.8596 20.5937C47.7524 24.5321 45.3988 22.4427 45.3988 27.9537C45.3988 33.0666 49.0247 31.8397 49.225 28.7821C49.3967 26.1602 48.6163 25.3643 51.6119 25.3643C56.1323 25.3643 56.4838 24.9974 56.4838 27.9537V48.0744C56.4838 50.2385 56.3338 50.7004 54.0642 50.7004C47.8266 50.7004 49.2291 50.0297 49.2351 44.3789C49.2379 41.6441 49.4863 37.9126 48.8336 35.6336C47.631 35.2557 47.006 35.2459 45.7223 35.6141C45.1828 39.9566 45.3988 43.5697 45.3988 48.0744C45.3988 52.3563 47.2858 54.624 51.6119 54.624C55.3211 54.624 59.6837 54.8959 60.2889 49.7026C60.5087 47.8173 59.8308 47.993 61.024 47.228C61.5877 47.8293 61.6641 46.2528 61.6641 48.8959L61.6634 66.2808C53.437 66.2808 54.3232 67.1114 52.5585 63.5469C50.4408 59.269 49.7733 56.2345 46.701 56.2345H20.1016C15.2193 56.2345 14.8389 65.4362 12.3262 66.2801C5.88049 66.2852 0.0509663 64.8066 0.0509663 72.3016C0.0509663 79.75 -1.0447 83.9464 6.92429 83.9505C8.84179 89.5944 10.3707 95.5395 19.0631 97.5548C25.324 99.0063 32.0646 96.4528 35.5412 91.5033C36.2996 90.4238 35.9826 90.6465 36.9403 89.8881C39.2278 94.8959 46.5699 99.5902 54.626 97.4832C62.6953 95.3729 64.4873 89.9285 66.4891 83.9458L89.8207 84.0584C91.0437 88.4662 91.5232 90.1414 94.0622 92.939C95.7091 94.7537 98.6288 96.8462 102.086 97.6116C107.671 98.8482 113.115 97.0298 116.782 93.3489C118.607 91.5172 118.379 90.426 119.952 90.1679C125.724 90.1679 131 91.5699 131 85.0314V77.6398C131 72.5754 129.186 74.6541 128.871 71.5047C128.496 67.754 129.542 48.7271 128.598 47.2532C125.999 44.8512 106.361 44.165 103.353 42.2577C102.644 41.6532 102.522 38.7098 102.397 37.7899L100.704 24.2301Z" fill="#0077FF"/>
</svg>
