<svg width="123" height="80" viewBox="0 0 123 80" fill="none" xmlns="http://www.w3.org/2000/svg">
<path id="Vector" fill-rule="evenodd" clip-rule="evenodd" d="M8.26478 75.8019C7.0118 74.8285 6.91619 71.3302 6.88431 69.6924L109.676 69.7798L107.546 75.8012L8.26478 75.8019ZM14.3258 45.2127L18.2557 45.1003L18.2099 41.3896L14.3258 41.2798V45.2127ZM14.1863 36.8569L18.2547 37.0149L18.2258 32.868L14.2457 32.8733L14.1863 36.8569ZM22.4631 45.1352L26.5082 45.1339V41.0529L26.0175 41.051L22.4631 41.0483V45.1352ZM22.4458 37.0089L26.5082 37.0076L26.466 32.8353L22.5627 32.835L22.4458 37.0089ZM67.673 41.0467L80.0098 41.1024L79.9865 49.2254L78.5045 49.2597L69.242 49.2646L67.6793 49.2349L67.673 41.0467ZM51.2104 41.0704L63.5967 41.0457L63.6026 47.7016L63.5661 49.2692L51.2147 49.1446L51.2104 41.0704ZM7.96166 28.8217L32.7216 28.8124L32.7282 47.7016L32.6917 49.2636L7.96199 49.172L7.96166 28.8217ZM73.8731 53.3086C77.2316 53.3086 82.0539 54.0489 84.0917 52.1093C86.8739 49.4615 88.013 47.2363 90.4681 47.2354C95.5109 47.233 114.656 46.9841 118.181 47.3729L111.217 65.6006L6.11173 65.5155L4.2904 53.3086H73.8731ZM112.962 41.0457V42.3353L112.914 43.073L100.602 42.9935L100.584 41.0645L112.962 41.0457ZM84.197 41.0457C87.5505 41.0365 93.4873 40.8155 96.5444 41.1944L96.5112 42.9694C88.6192 43.7895 89.3118 41.0905 84.3171 46.0334L84.1996 44.635L84.197 41.0457ZM100.585 28.8303L112.961 28.8124L112.949 37.0122L102.045 37.0304L100.584 36.9212L100.585 28.8303ZM84.2026 28.8124L95.1019 28.7851L96.5384 28.9493L96.5411 36.9206L95.0995 37.0122H84.1993L84.2026 28.8124ZM67.6763 28.8134L80.0071 28.8652L80.0078 36.9763L78.5045 37.0122L69.242 37.0175L67.6726 36.9862L67.6763 28.8134ZM51.212 28.8355L63.5957 28.8124L63.6461 37.0122L52.645 37.0366L51.2107 36.8922L51.212 28.8355ZM100.584 16.5874L112.962 16.5706L112.9 24.7045L102.045 24.721L100.584 24.622L100.584 16.5874ZM84.197 16.5706L95.1019 16.5439L96.5388 16.7035L96.5404 24.622L95.0995 24.7045H84.1996L84.197 16.5706ZM67.673 16.5716L80.0075 16.6217L80.0078 24.6715L78.5045 24.7045L69.242 24.7091L67.673 24.6814V16.5716ZM51.2104 16.5927L63.5967 16.5706L63.4532 24.7045L52.6453 24.7262L51.2107 24.596L51.2104 16.5927ZM18.3765 20.5807L22.4289 20.6496L22.4634 24.6708L18.2351 24.7041L18.3765 20.5807ZM7.96033 12.4073L32.7223 12.399L32.7448 15.122L32.6094 16.5752L7.98588 16.51L7.96033 12.4073ZM100.584 4.29682L112.962 4.27901L112.971 10.9043L112.914 12.4079L100.59 12.3288L100.584 4.29682ZM84.197 4.27901L95.1019 4.25132L96.5417 4.41751L96.5115 12.3858L84.2358 12.4026L84.1996 10.9039L84.197 4.27901ZM67.673 4.27967L80.0108 4.33342L79.9759 12.3733L78.5045 12.4023L69.242 12.4063L67.6826 12.3819L67.673 4.27967ZM51.2104 4.30242L63.5967 4.27901L63.6063 10.9043L63.5482 12.4099L51.217 12.3047L51.2104 4.30242ZM18.2553 4.27901L21.0023 4.25791L22.4631 4.38453L22.4651 8.2785L21.0006 8.36588H18.2553V4.27901ZM26.7768 24.7051C26.0909 23.613 26.3714 21.8172 26.5082 20.5078L35.2889 20.4583C37.2892 19.6297 36.8231 18.2048 36.8049 15.8923C36.7946 14.5799 36.9672 10.9023 36.6608 9.88371C35.8474 7.17814 29.4398 8.66892 26.5082 8.21585C26.5082 0.122894 27.3754 0.117948 21.0016 0.146965C13.5459 0.180599 14.1943 -0.685973 14.1943 8.36588C12.3434 8.36588 10.4922 8.37281 8.64126 8.35962C6.42515 8.34445 5.30632 8.01602 4.36078 9.35677C3.42056 10.8921 3.67718 18.4729 4.46103 20.0481C6.24388 20.9229 11.4699 20.5902 14.1335 20.5886L14.1943 24.7045C0.210758 24.7045 4.40326 21.6692 3.89696 49.1446C1.78112 49.4011 1.67289 49.1383 0.131083 49.9192C-0.62621 53.242 2.11876 66.0309 2.72134 70.5019C3.02113 72.7267 2.99692 78.9645 5.32093 79.749C6.81095 80.2522 90.0936 79.8242 106.69 79.935C109.182 79.9518 110.028 80.1569 110.9 78.3466L117.422 61.0593C118.685 57.6065 123.579 46.6233 122.943 43.7417C120.724 42.7515 119.976 43.1409 117.153 43.0252C116.914 35.9198 118.136 3.97136 116.424 0.563105C113.628 -0.334464 65.581 0.149933 54.9626 0.149274C52.6084 0.148944 48.9451 -0.58639 47.5013 1.21007C46.4329 3.41541 47.1892 42.821 47.0859 49.2323L36.8238 49.2349C36.7063 44.2185 37.4207 28.7781 36.4662 25.3811C34.1867 24.2488 29.8979 24.7031 26.7768 24.7051Z" fill="#0077FF"/>
</svg>
