<svg width="131" height="85" viewBox="0 0 131 85" fill="none" xmlns="http://www.w3.org/2000/svg">
<path id="Vector" fill-rule="evenodd" clip-rule="evenodd" d="M107.034 72.7292C108.669 73.4307 108.195 73.2278 108.992 74.2067L105.027 74.2328C105.128 74.1101 105.266 73.8041 105.325 73.898L107.034 72.7292ZM55.9667 4.36224H59.8951C64.6648 4.36224 64.7016 0 59.8951 0H55.9667C51.1122 0 51.1336 4.36224 55.9667 4.36224ZM3.59035 50.2125H14.0656C18.8749 50.2125 18.8843 45.8503 14.0656 45.8503H3.59035C-1.20449 45.8503 -1.18907 50.2125 3.59035 50.2125ZM10.1373 39.2957H33.7067C38.4744 39.2957 38.5147 34.9335 33.7067 34.9335H10.1373C5.2908 34.9335 5.29951 39.2957 10.1373 39.2957ZM7.95529 4.36224H44.7276C49.3819 4.36224 49.4292 0 44.6186 0H7.95529C3.1125 0 3.11485 4.36224 7.95529 4.36224ZM59.0098 29.4729C59.0098 25.7423 60.5087 24.0126 64.2597 24.0126C68.63 24.0126 72.1074 23.7127 72.1074 29.4729C72.1074 35.0864 72.9712 39.2997 66.4403 39.2997C58.4408 39.2997 59.0098 37.5177 59.0098 29.4729ZM60.723 20.1626C57.8291 21.1932 55.8863 22.7398 55.0168 25.894C54.501 27.7653 54.4604 34.6302 54.8568 36.7212C56.3218 44.4507 66.0446 44.6687 70.5511 43.1896C78.3471 40.6306 79.5053 23.8345 71.1942 20.3653C68.4922 19.2371 63.4542 19.1898 60.723 20.1626ZM98.3044 72.7292L100.298 74.2302L96.334 74.2094L98.3044 72.7292ZM33.8466 73.2925C36.8726 70.9985 37.4694 69.9172 36.9805 65.4963H87.6813C86.9415 70.3148 87.9415 71.1937 90.9939 73.4965L32.7977 74.1406L33.8466 73.2925ZM26.2869 72.7292C27.8683 73.4079 27.4428 73.208 28.2456 74.2278L24.28 74.2131C24.3806 74.1091 24.496 73.9739 24.5784 73.898C24.6566 73.8266 24.7733 73.687 24.8682 73.6058L26.2869 72.7292ZM17.5574 72.7292L19.5509 74.2302L15.587 74.2094L17.5574 72.7292ZM110.099 69.6099C109.044 68.0802 109.041 67.2827 110.097 65.6318L112.681 65.7654C113.609 67.114 113.609 68.2482 112.677 69.7143L110.099 69.6099ZM101.37 69.6099C100.314 68.0802 100.311 67.2827 101.367 65.6318L103.951 65.7654C104.879 67.114 104.879 68.2482 103.947 69.7143L101.37 69.6099ZM92.6401 69.6099C91.5848 68.0802 91.5821 67.2827 92.6377 65.6318L95.2217 65.7654C96.1499 67.114 96.1499 68.2482 95.2177 69.7143L92.6401 69.6099ZM29.3522 69.6099C28.2966 68.0802 28.2939 67.2827 29.3498 65.6318L31.9335 65.7654C32.8617 67.114 32.8617 68.2482 31.9295 69.7143L29.3522 69.6099ZM20.6226 69.6099C19.567 68.0802 19.5647 67.2827 20.6203 65.6318L23.2043 65.7654C24.1321 67.114 24.1321 68.2482 23.2003 69.7143L20.6226 69.6099ZM11.8934 69.6099C10.8378 68.0802 10.8351 67.2827 11.891 65.6318L14.4747 65.7654C15.4029 67.114 15.4029 68.2482 14.4707 69.7143L11.8934 69.6099ZM125.631 48.0333C119.286 48.0333 112.942 48.0333 106.597 48.0333C101.333 48.0333 92.8936 49.031 89.0618 46.5763C84.4537 43.6244 85.1982 38.356 85.1982 31.6562C85.1982 25.5001 85.1982 19.3437 85.1982 13.1877C100.272 13.7741 113.367 22.8562 120.46 34.3792C122.563 37.7968 125.061 43.2161 125.631 48.0333ZM113.545 74.1406C113.627 74.0604 113.749 73.9651 113.808 73.9175C115.218 72.7735 116.14 72.3927 117.041 70.9116C118.13 69.1218 117.994 67.8752 117.643 65.5215C123.973 65.6654 128.429 65.2185 130.284 60.1494C131.83 55.9261 130.555 48.8297 129.437 44.6171C128.118 39.6523 126.513 36.0795 124.117 32.0349C122.054 28.553 118.632 24.2736 116.202 22.0517C99.4794 6.75722 85.2887 8.73353 58.149 8.73353L4.44879 8.71072C-2.27988 8.66711 0.62203 12.4188 1.15587 12.7234C2.77013 13.6446 73.3745 13.0585 80.624 13.1015C81.415 16.7558 80.8386 29.6611 80.8369 34.2763C80.8285 53.8568 89.8273 52.3958 105.725 52.3958C108.335 52.3958 125.402 51.9899 126.167 52.7041C127.63 54.0692 126.449 59.7895 124.29 60.7204C122.158 61.6396 116.674 61.1334 114.018 61.1334H50.2806C50.2806 54.2188 50.2806 47.3043 50.2806 40.3897C50.2806 34.4889 51.4073 26.4237 48.0624 22.5362C44.6682 18.5909 33.7383 19.2146 30.7324 19.9077C24.277 21.3955 22.7345 29.128 25.01 32.465C31.9234 33.6697 24.8122 24.4528 33.2383 24.0042C38.5954 23.7191 45.3228 22.8428 45.8858 28.1779C46.254 31.6676 46.2697 58.5254 45.7064 61.1331L28.6798 61.1337C26.7407 52.5193 31.8175 40.4877 25.013 41.7574C22.6 45.445 25.0278 55.8395 23.8826 61.1277C18.1435 61.1619 12.385 61.1535 6.64552 61.1327C4.11481 61.1233 -0.0603564 60.394 0.170013 63.4831C0.378922 66.2884 4.16979 65.4094 6.82558 65.5436C6.78266 69.984 6.10798 70.3738 10.2473 73.4965L11.0296 74.1342C8.2581 74.3436 5.39675 74.0342 2.74029 74.2211C-0.600236 74.4559 -0.553612 77.5964 1.47947 78.3774C2.74869 78.8652 14.9469 78.5877 17.3357 78.6018C18.0003 81.6718 16.8344 82.3776 18.4695 84.8706C23.2445 85.765 21.4012 81.8462 22.1329 78.5954L30.4296 78.6018C31.0945 81.6718 29.9286 82.3776 31.5637 84.8706C36.3387 85.765 34.4954 81.8462 35.2271 78.5954L43.5238 78.6018C44.1884 81.6718 43.0228 82.3776 44.6575 84.8706C49.4325 85.765 47.5892 81.8462 48.3209 78.5954L56.6179 78.6018C57.2826 81.6718 56.1166 82.3776 57.7517 84.8706C62.5267 85.765 60.6834 81.8462 61.4151 78.5954L69.7121 78.6018C70.3767 81.6718 69.2108 82.3776 70.8458 84.8706C75.6209 85.765 73.7776 81.8462 74.5093 78.5954L82.8063 78.6018C83.4709 81.6718 82.3049 82.3776 83.94 84.8706C88.715 85.765 86.8718 81.8462 87.6034 78.5954L95.9001 78.6018C96.5651 81.6718 95.3991 82.3776 97.0339 84.8706C101.809 85.765 99.9659 81.8462 100.698 78.5954L108.994 78.6018C109.659 81.6718 108.493 82.3776 110.128 84.8706C114.903 85.765 113.06 81.8462 113.791 78.5958C117.068 78.5958 120.344 78.5924 123.62 78.5961C126.156 78.5988 131.224 79.5334 130.954 76.241C130.666 72.742 120.467 74.6237 113.545 74.1406Z" fill="#0077FF"/>
</svg>
