<svg width="44" height="49" viewBox="0 0 44 49" fill="none" xmlns="http://www.w3.org/2000/svg">
<path id="Vector" fill-rule="evenodd" clip-rule="evenodd" d="M41.9139 21.5646H2.11861L2.09051 22.4251H41.8858L41.9139 21.5646ZM27.1679 40.9973L22.7991 40.9515C22.598 40.95 22.4339 40.7859 22.4339 40.5848L22.4709 25.7871C22.4709 25.5845 22.6365 25.4204 22.839 25.4204L27.1797 25.4426C27.3808 25.4426 27.5449 25.6082 27.5449 25.8107L27.5508 31.7186C27.5419 31.9211 27.3719 32.0793 27.1679 32.0719L25.7782 32.0128C25.583 32.0054 25.4263 31.8442 25.4263 31.6461L25.4248 27.5434H24.5614V38.8742H25.4263L25.4367 33.2222C25.4396 33.0181 25.6067 32.8555 25.8092 32.8585L27.1871 32.8777C27.3882 32.8792 27.5494 33.0433 27.5494 33.2443L27.539 40.6336C27.5375 40.8361 27.3705 40.9988 27.1679 40.9973ZM36.4451 32.7254C36.4348 35.2683 36.4732 37.9207 36.5531 38.8728L37.3529 38.8654L37.384 27.5553L36.5767 27.5434C36.4969 28.2827 36.454 30.4501 36.4451 32.7254ZM39.1256 41.0032L34.7582 40.9293C34.5586 40.9263 34.3975 40.7622 34.3975 40.5612L34.4226 25.793C34.4226 25.5889 34.5882 25.4248 34.7908 25.4248L39.1433 25.4263C39.3459 25.4263 39.51 25.5904 39.51 25.7944L39.4981 40.6425C39.4952 40.845 39.3281 41.0076 39.1256 41.0032ZM7.42918 27.5434L6.6737 27.5479L6.61751 38.8491L7.45284 38.8713C7.5312 37.9133 7.56815 35.2654 7.55928 32.7284C7.55041 30.4486 7.50754 28.2782 7.42918 27.5434ZM9.23141 40.9884L4.85817 40.9869C4.65562 40.9869 4.49004 40.8228 4.49004 40.6188L4.5403 25.7782C4.54326 25.5742 4.71032 25.4115 4.91287 25.4145L9.24175 25.4677C9.44282 25.4692 9.60546 25.6333 9.60546 25.8344L9.59954 40.6218C9.59954 40.8243 9.43396 40.9884 9.23141 40.9884ZM13.4627 27.5434H12.5964L12.5978 38.8742H13.4657L13.4627 27.5434ZM15.2117 40.9914L10.84 40.9751C10.6359 40.9751 10.4718 40.811 10.4718 40.607L10.5177 25.7811C10.5191 25.5786 10.6847 25.4145 10.8887 25.416L15.2221 25.4588C15.4231 25.4603 15.5858 25.6244 15.5858 25.827L15.5784 40.6247C15.5784 40.8273 15.4143 40.9914 15.2117 40.9914ZM19.4415 27.5449H18.5796V38.8728H19.4415V27.5449ZM21.1891 40.9943L16.8188 40.9633C16.6162 40.9633 16.4536 40.7977 16.4536 40.5952L16.4935 25.7841C16.495 25.5815 16.6591 25.4174 16.8631 25.4189L21.2009 25.4514C21.4034 25.4514 21.5676 25.6156 21.5676 25.8181L21.5587 40.6292C21.5572 40.8317 21.3931 40.9958 21.1891 40.9943ZM31.4051 27.5434H30.5432V38.8742H31.4051V27.5434ZM33.1467 41.0003L28.7794 40.9396C28.5783 40.9382 28.4157 40.774 28.4157 40.573L28.4468 25.79C28.4468 25.5875 28.6109 25.4234 28.8149 25.4234L33.1615 25.4352C33.3656 25.4352 33.5297 25.5993 33.5297 25.8018L33.5178 40.638C33.5164 40.8406 33.3493 41.0032 33.1467 41.0003ZM41.8533 45.5406L2.09347 45.4873L2.12748 46.3167L41.8001 46.3507L41.8533 45.5406ZM42.7418 48.4782H0.366652V48.4768C0.164105 48.4768 0 48.3126 0 48.1086L0.00443064 43.7354C0.00443064 43.5328 0.170015 43.3672 0.372562 43.3672L40.3468 43.3613L40.3823 33.2088C40.3823 33.0063 40.5478 32.8407 40.7504 32.8407L42.1179 32.8451C42.3205 32.8451 42.4861 33.0093 42.4861 33.2118L42.5083 43.3628L43.5993 43.3643L43.6319 43.3628C43.8359 43.3628 44 43.5284 44 43.7324V48.1042C44 48.3067 43.8359 48.4708 43.6334 48.4723L42.7759 48.4768C42.7655 48.4768 42.7537 48.4782 42.7418 48.4782ZM37.3854 18.5752H36.525V19.4327H37.3854V18.5752ZM15.0994 15.5887C13.5662 16.2762 10.2752 17.7547 9.60841 18.2766V19.4342H34.4507L34.4034 18.2795C33.8357 17.8094 31.2735 16.6591 29.6236 15.9184C29.0736 15.6715 28.6212 15.4675 28.3773 15.3507C27.4828 14.9175 26.7185 14.539 26.0576 14.2108C23.8798 13.1286 22.8508 12.6171 21.9608 12.6141C21.1728 12.6111 20.3833 13.0118 18.8857 13.7702C18.0755 14.1798 17.0657 14.6913 15.7233 15.3078C15.5695 15.3773 15.3596 15.4719 15.0994 15.5887ZM7.47946 18.5752H6.61161L6.61455 19.4327H7.47946V18.5752ZM23.1672 2.11714L20.8845 2.11862L20.8269 3.73308L23.1791 3.73456L23.1672 2.11714ZM20.9437 5.86057L19.0705 5.8443C18.8694 5.84283 18.7068 5.67872 18.7068 5.47617L18.7245 0.366664C18.726 0.162639 18.8916 -0.00146853 19.0941 9.91152e-06L24.9414 0.0414063C25.1439 0.0428848 25.308 0.206992 25.308 0.409539V5.47321C25.308 5.67576 25.1454 5.83987 24.9429 5.84135L23.0667 5.85761C23.0342 6.15921 23.1953 6.2287 23.3979 6.31593C23.5886 6.39872 23.7985 6.48891 24.0099 6.65449C25.0434 7.47059 25.3568 8.36801 25.3021 9.24769C25.2578 9.94699 24.9769 10.6152 24.6486 11.217C25.7959 11.7182 26.9683 12.2918 28.1437 12.8654C29.1801 13.3725 30.2179 13.8797 31.2603 14.3468C32.6766 14.9811 33.5622 15.4232 34.1757 15.7307C34.7834 16.0352 35.1131 16.2008 35.4413 16.288C35.8272 16.3915 36.2603 16.3974 37.2066 16.4122C37.7004 16.4196 38.3272 16.43 39.133 16.4551C39.3296 16.461 39.4878 16.6222 39.4893 16.8203L39.5159 19.4357L43.6008 19.4371C43.8049 19.4371 43.969 19.6027 43.969 19.8053L43.9512 24.1844C43.9512 24.387 43.7871 24.5525 43.5846 24.5525L42.5038 24.554L42.5023 31.692C42.5038 31.7127 42.5038 31.7334 42.5023 31.7541C42.4861 31.9566 42.3072 32.1074 42.1046 32.0911L40.7164 31.9758V31.9743C40.5271 31.9596 40.3793 31.7999 40.3793 31.6062L40.431 24.5555H3.62514L3.6281 42.1253C3.63254 42.3294 3.47139 42.4979 3.26884 42.5024L1.90867 42.5378C1.89536 42.5393 1.88205 42.5408 1.86875 42.5408C1.66472 42.5408 1.49914 42.3752 1.49914 42.1712V24.554L0.408043 24.5525C0.205496 24.5525 0.0399119 24.387 0.0399119 24.1844L0.0458314 19.8053C0.0458314 19.6027 0.209936 19.4371 0.412483 19.4371L4.49447 19.4357L4.52256 16.8292C4.5196 16.6281 4.6778 16.4625 4.87887 16.4551C5.71271 16.4285 6.2893 16.4492 6.74466 16.4655C7.71747 16.5009 8.09596 16.5142 9.38812 15.9214L19.3528 11.2362C19.0542 10.7468 18.7762 10.2427 18.7008 9.35857C18.6831 9.15602 18.8354 8.97713 19.0379 8.96087C20.8372 8.80859 20.9215 9.22107 21.0368 9.77993C21.0738 9.9603 21.1166 10.1732 21.5276 10.3536C21.8485 10.494 22.156 10.4837 22.4118 10.3757C22.6084 10.2929 22.7784 10.154 22.9085 9.98099C23.0386 9.80654 23.1258 9.59956 23.1554 9.38222C23.1938 9.09097 23.1244 8.7805 22.9041 8.51142C22.6202 8.16398 22.0747 8.1285 21.3591 8.08415L21.3029 8.08119V8.07971C21.1122 8.06789 20.9599 7.90969 20.9584 7.71602L20.9437 5.86057Z" fill="#0077FF"/>
</svg>
