<svg width="44" height="45" viewBox="0 0 44 45" fill="none" xmlns="http://www.w3.org/2000/svg">
<path id="Vector" fill-rule="evenodd" clip-rule="evenodd" d="M33.1511 26.7859L33.0734 26.8006L33.0358 26.8087C30.8357 27.2391 29.0914 28.4457 27.996 30.0466C26.902 31.6447 26.4515 33.6357 26.835 35.6388C26.8403 35.6669 26.8564 35.7313 26.8564 35.7514C27.2318 37.5708 28.2843 39.3016 29.8181 40.4667C31.3452 41.6251 33.3536 42.2191 35.6503 41.7699L35.7401 41.7525C37.6962 41.3476 39.5143 40.1919 40.6686 38.5053C41.6916 37.0077 42.1904 35.0877 41.7949 32.8996L41.7828 32.8326C41.4436 31.0642 40.3884 29.3521 38.864 28.1816C37.3436 27.0138 35.3567 26.3877 33.1511 26.7859ZM31.734 20.9162V17.3217L28.1395 17.3029L28.1247 20.8773C28.8434 20.9899 30.1104 20.9577 31.1079 20.9323C31.3358 20.9256 31.5517 20.9202 31.734 20.9162ZM32.0598 34.9469C32.2327 35.1615 32.4164 35.3894 32.6242 35.5851L36.8583 30.9837L36.869 30.9717C37.2417 30.6056 37.5662 30.426 37.8397 30.371C38.0797 30.3241 38.2848 30.3657 38.4538 30.4662C38.616 30.5614 38.7353 30.7089 38.8144 30.8765C38.9284 31.1165 38.9579 31.4114 38.9123 31.6501C38.8761 31.8391 38.4832 32.3432 37.9858 32.9171C37.1881 33.8382 36.0927 35.0073 35.9157 35.1776C35.6825 35.4028 35.3754 35.7621 35.0456 36.1496C34.1741 37.1712 33.1485 38.3739 32.4339 38.2049V38.2036C32.4178 38.1996 31.0971 37.1779 30.3195 36.2072C30.0755 35.9042 29.8744 35.5999 29.7604 35.321C29.6183 34.9711 29.6063 34.648 29.7926 34.3812C29.92 34.1988 30.1291 34.0661 30.4402 34.0004C31.1695 33.8449 31.5798 34.3543 32.0598 34.9469ZM19.1459 17.2251C18.6913 17.2372 18.2985 17.2613 18.084 17.3016L18.0491 20.9819C18.3119 21.0288 18.7798 21.0543 19.3054 21.065C20.1983 21.0824 21.2267 21.0489 21.7697 21.0073C21.8206 20.5072 21.8514 19.6277 21.8434 18.8032C21.8367 18.1811 21.8099 17.6019 21.7522 17.2654C21.2294 17.2372 20.0844 17.1983 19.1459 17.2251ZM15.92 17.8486C15.904 16.544 15.8946 15.7812 17.1401 15.3159C17.6523 15.1255 19.0185 15.1631 20.0012 15.1886C20.2989 15.1966 20.559 15.2046 20.74 15.2033C23.4992 15.1993 23.817 15.3897 23.821 17.6796C23.821 17.9438 23.817 18.2347 23.8116 18.5605C23.8062 18.9775 23.7982 19.4521 23.7995 19.9884C23.8062 23.1378 23.3625 23.1324 20.3203 23.0882C19.9235 23.0828 19.4784 23.0774 18.9809 23.0788C16.2311 23.0855 15.9093 22.6725 15.9026 20.4684C15.9026 20.2042 15.9066 19.9133 15.912 19.5915C15.9174 19.188 15.9241 18.7348 15.9227 18.2293C15.9227 18.1006 15.9214 17.9719 15.92 17.8486ZM26.0345 17.984C26.0252 16.7586 26.0171 15.6994 27.2774 15.2958C27.7668 15.1403 29.1638 15.1698 30.1519 15.1926C30.4509 15.1979 30.711 15.2046 30.888 15.2033C33.611 15.1979 33.9328 15.5532 33.9382 17.7534C33.9382 18.0175 33.9328 18.3084 33.9288 18.6316C33.9221 19.0324 33.914 19.4843 33.9154 19.9884C33.9154 20.1225 33.9181 20.2579 33.9194 20.3906C33.9382 21.5704 33.9529 22.5478 32.824 22.942C32.2636 23.1378 30.8236 23.1083 29.8167 23.0882C29.5432 23.0828 29.3019 23.0774 29.129 23.0788C26.3496 23.0855 26.0184 22.6658 26.0117 20.4858C26.0117 20.2176 26.0171 19.9254 26.0225 19.5982C26.0292 19.1933 26.0359 18.7375 26.0359 18.2293L26.0345 17.984ZM21.5324 25.9533L18.0612 25.9627L18.0572 29.4419L18.0679 29.639L21.6999 29.6336L21.7187 25.9774L21.5324 25.9533ZM18.8026 31.7252C17.4914 31.7305 16.2887 31.7345 15.9723 30.3455C15.8624 29.8615 15.8892 28.5597 15.9107 27.5917C15.9174 27.2498 15.9241 26.9508 15.9227 26.7551C15.912 24.1688 16.4067 23.8202 18.4219 23.8122C18.7101 23.8108 19.0252 23.8175 19.3791 23.8242C19.8189 23.8336 20.3163 23.8443 20.8754 23.8417C23.4764 23.8336 23.825 24.205 23.8317 26.2536C23.8331 26.5392 23.8263 26.8556 23.8183 27.2123C23.8089 27.6681 23.7982 28.191 23.7995 28.7836C23.8076 31.4074 23.4375 31.748 21.3514 31.7547C21.0711 31.7547 20.7614 31.7493 20.4128 31.7426C19.9583 31.7332 19.4368 31.7225 18.8469 31.7252H18.8026ZM11.5962 29.6457L11.619 25.96L7.95207 25.9667L7.95475 29.6698C7.98022 29.7543 7.98156 29.82 7.98424 29.8736C7.98827 30.0613 7.97888 29.6765 8.55406 29.6671L11.5962 29.6457ZM6.82317 31.5375C6.30296 31.3296 5.96376 30.9382 5.84846 30.186C5.75729 29.5934 5.7841 28.5315 5.80555 27.6252C5.81494 27.2431 5.82432 26.8878 5.82298 26.6183C5.8203 25.9895 5.83907 25.4009 6.01471 24.9223C6.21582 24.3806 6.5939 23.9972 7.30315 23.8752C7.89576 23.7733 9.03404 23.8014 9.98462 23.8242C10.3748 23.8336 10.7314 23.843 10.9969 23.8417C13.3887 23.8282 13.7507 24.4919 13.7615 26.326C13.7628 26.6357 13.7534 26.9723 13.7427 27.349C13.7293 27.8142 13.7145 28.3385 13.7172 28.919C13.7279 31.3953 13.1689 31.7614 11.2771 31.7694C10.9714 31.7707 10.6362 31.7614 10.2581 31.752H10.2568C9.76474 31.7372 9.20029 31.7225 8.5621 31.7252C7.8676 31.7292 7.2884 31.7211 6.82317 31.5375ZM11.6002 17.319L7.95207 17.2975L7.95877 20.9564L8.16122 20.9604L11.3803 20.9577L11.5573 20.9551L11.6002 17.319ZM5.80957 18.9976C5.81628 18.539 5.82298 18.0188 5.82298 17.2828C5.82298 16.5145 6.00264 15.9984 6.37939 15.6605C6.74809 15.3293 7.27768 15.2033 7.98693 15.2033C8.60366 15.2033 9.12387 15.1872 9.60251 15.1725C10.0503 15.1591 10.4646 15.147 10.7904 15.147C12.658 15.147 13.7172 15.442 13.7172 17.2828C13.7172 17.9397 13.7333 18.4868 13.7481 18.9815C13.7601 19.4347 13.7722 19.8489 13.7722 20.1694C13.7722 22.0987 13.4678 23.0788 11.5385 23.0788C10.8253 23.0788 10.3305 23.0855 9.89211 23.0908C7.89307 23.1163 6.89691 23.1297 6.32978 22.5545C5.76935 21.9847 5.78276 20.9872 5.80957 18.9976ZM22.676 35.3961C23.5435 35.3894 24.2514 35.384 24.6683 35.3813C24.6214 34.4991 24.6268 33.68 24.722 32.8956C24.8319 31.9933 25.0612 31.1379 25.4661 30.2879C25.7208 29.7556 25.9809 29.2756 26.2812 28.8238C26.5842 28.3706 26.9248 27.9483 27.3404 27.5354C28.0295 26.8476 28.7777 26.2456 29.629 25.7669C30.4844 25.287 31.4404 24.9303 32.5411 24.7373C34.6032 24.3753 35.5551 24.63 36.6733 24.9303C36.9575 25.0054 37.2525 25.0845 37.5729 25.1556V13.7017L2.15071 13.6843C2.08636 17.3029 2.10781 21.124 2.12926 24.8955C2.13999 26.8717 2.15071 28.8332 2.15071 30.4072C2.15071 30.6606 2.13731 31.0079 2.1239 31.386C2.06893 32.8299 1.99519 34.7673 2.6079 35.191C3.11604 35.5422 16.8465 35.439 22.676 35.3961ZM22.9307 5.70555L22.3851 5.79672C22.3797 7.50749 22.3234 9.3738 19.5226 9.37782C18.9126 9.37916 18.4446 9.28263 18.0585 9.09626C17.6643 8.90454 17.3667 8.62567 17.1012 8.26233C16.6481 7.64157 16.6507 7.0731 16.6534 6.44697C16.6548 6.22575 16.6561 5.99649 16.632 5.75918H11.5935C11.5828 5.88521 11.5774 6.02867 11.5707 6.18017C11.5157 7.50749 11.4366 9.3738 8.69751 9.37782C8.08748 9.37916 7.61956 9.28263 7.23477 9.09626C6.83926 8.90454 6.54162 8.62567 6.27749 8.26233C5.82298 7.64023 5.82566 7.07176 5.82834 6.44429C5.82969 6.22307 5.83103 5.99247 5.80689 5.75382C5.61115 5.74845 5.39931 5.74041 5.18613 5.73102C3.86953 5.67337 2.44702 5.6117 2.20568 6.61054C2.06088 7.21387 2.10245 9.30274 2.13194 10.7521C2.13865 11.0591 2.14401 11.3393 2.14803 11.5592L37.5729 11.5873C37.5756 10.7749 37.593 10.0173 37.6064 9.36307C37.6439 7.59196 37.6654 6.63065 37.3718 6.18419C37.0567 5.70555 36.1772 5.7203 34.2559 5.75247L33.9435 5.75784C33.9408 5.8423 33.9408 5.93481 33.9395 6.03403C33.9315 7.12941 33.9194 8.82946 31.9941 9.29335C31.7152 9.36039 31.4431 9.39927 31.1816 9.41134C30.4911 9.44485 29.861 9.29469 29.3649 8.99035C28.8528 8.67393 28.4854 8.19529 28.3379 7.58257C28.3017 7.43107 28.2789 7.27287 28.2709 7.1093L28.2508 5.74577L23.7151 5.71091C23.5595 5.71091 23.4067 5.70957 23.2539 5.70823L22.9307 5.70555ZM30.3959 2.25718C30.3209 2.34165 30.3075 2.56287 30.3075 2.93962C30.3075 3.13134 30.3008 3.46384 30.294 3.82852C30.2713 4.96278 30.2404 6.43893 30.4268 7.16427C30.644 7.20583 30.8719 7.22594 31.0958 7.22058C31.305 7.21521 31.5128 7.18974 31.7032 7.14147C31.8775 6.41614 31.8493 4.9239 31.8278 3.79768C31.8211 3.43971 31.8158 3.11525 31.8158 2.93962C31.8158 2.57494 31.7836 2.36444 31.6911 2.27327C31.5959 2.18076 31.3841 2.1526 31.0234 2.1526C30.656 2.1526 30.4643 2.17808 30.3959 2.25718ZM18.8831 2.27193C18.7999 2.36444 18.7771 2.57896 18.7771 2.93962C18.7771 3.63277 18.757 4.27901 18.7396 4.83273C18.7262 5.23763 18.7141 5.59159 18.7141 5.88923C18.7155 6.85992 18.8415 7.24739 19.5213 7.24739C20.201 7.24739 20.3244 6.91757 20.3244 5.94822C20.3244 5.6613 20.3136 5.31539 20.3016 4.9172C20.2841 4.34873 20.2627 3.67434 20.2627 2.93962C20.2627 2.55482 20.2453 2.33763 20.1661 2.2545C20.0924 2.1754 19.8913 2.15395 19.5213 2.15395C19.1619 2.15395 18.9635 2.18478 18.8831 2.27193ZM8.05933 2.27193C7.97486 2.3631 7.95341 2.57896 7.95341 2.93962C7.95341 3.63277 7.93196 4.28035 7.91453 4.83541C7.90112 5.23897 7.89039 5.59427 7.89039 5.89057C7.89039 6.85992 8.01776 7.24739 8.69751 7.24739C9.37593 7.24739 9.50061 6.91757 9.49927 5.94822C9.49927 5.6613 9.48855 5.31674 9.47648 4.9172C9.45905 4.34873 9.4376 3.67434 9.4376 2.93962C9.4376 2.55482 9.42017 2.33763 9.34241 2.2545C9.26733 2.1754 9.06756 2.15395 8.69751 2.15395C8.33686 2.15395 8.13843 2.18478 8.05933 2.27193ZM5.3725 3.63277C5.51998 3.6368 5.66343 3.64082 5.80957 3.64484C5.82566 3.42496 5.82432 3.21447 5.82432 3.01067C5.82432 2.35237 5.82298 1.75575 6.27347 1.13097C6.43972 0.899019 6.64351 0.703272 6.87278 0.542384C7.40639 0.16966 8.07541 -0.00597593 8.73505 0.00206847C9.39604 0.0114536 10.053 0.204519 10.5611 0.570539C10.7783 0.726065 10.9687 0.915108 11.1229 1.13499C11.5064 1.68201 11.5251 2.33629 11.5452 3.01738C11.5506 3.22653 11.5573 3.43971 11.5747 3.64752H16.695C16.695 3.47055 16.6869 3.30027 16.6802 3.13402C16.6481 2.42746 16.6199 1.79463 17.0972 1.13097C17.2675 0.894997 17.474 0.696568 17.7046 0.53568C18.2435 0.158934 18.9139 -0.0126796 19.5735 0.000727706C20.2318 0.014135 20.8848 0.211223 21.3876 0.573221C21.6048 0.730087 21.7951 0.917789 21.948 1.13499C22.3314 1.68201 22.3502 2.33629 22.369 3.01738C22.3757 3.22787 22.381 3.44105 22.3998 3.64886L28.2132 3.64618C28.2253 3.47591 28.236 3.3043 28.2454 3.1367C28.3553 1.31733 28.4318 0.0422904 31.0207 0.0288831C33.9113 0.014135 33.9261 2.05339 33.9341 3.36463C33.9355 3.46384 33.9355 3.55903 33.9382 3.64618C34.2439 3.64618 34.5401 3.64216 34.8244 3.6368C36.8221 3.60328 38.3183 3.57915 39.3091 5.33551C39.8441 6.2834 39.7744 9.09895 39.7274 10.9907C39.7167 11.4157 39.7087 11.7911 39.7087 12.1411V26.1169C39.8977 26.385 40.2517 26.6532 40.5748 26.8958C40.7759 27.0473 40.9649 27.1908 41.1178 27.3369C41.3243 27.5327 41.5562 27.7968 41.7855 28.0837C42.0349 28.3961 42.2829 28.738 42.488 29.0491C43.818 31.0655 44.2658 33.57 43.8502 35.9525C43.448 38.2586 42.236 40.4533 40.2329 41.9804C38.2593 43.4861 35.8514 44.1591 33.4997 43.9701C31.2071 43.7864 28.9694 42.7835 27.2425 40.9347C26.9905 40.6652 26.7773 40.4292 26.5749 40.1731C26.3697 39.913 26.1753 39.6301 25.9662 39.2681C25.8669 39.0965 25.7651 38.8592 25.6538 38.6031C25.4701 38.1768 25.2596 37.6874 25.0947 37.5198H9.37324C8.96968 37.5198 8.53126 37.5319 8.03653 37.5439C5.87795 37.5976 2.73661 37.6767 1.63855 37.0506C-0.123171 36.0463 -0.04809 33.9065 0.0336947 31.5978C0.0511243 31.1299 0.0672131 30.6539 0.0672131 30.1364C0.0672131 29.4446 0.0618501 28.4203 0.0551465 27.0232C0.0216281 20.6561 -0.04809 7.28895 0.115479 6.27804C0.569988 3.47993 3.37346 3.56842 5.3725 3.63277Z" fill="#0077FF"/>
</svg>
