<svg width="44" height="45" viewBox="0 0 44 45" fill="none" xmlns="http://www.w3.org/2000/svg">
<path id="Vector" fill-rule="evenodd" clip-rule="evenodd" d="M2.10361 11.623C2.05387 22.5874 1.97514 40.3471 2.22794 41.723C2.77913 42.0338 4.50592 41.9578 5.71743 41.904C6.10561 41.8874 6.44406 41.8722 6.66509 41.8722C7.25634 41.8722 9.2829 41.8791 11.8689 41.8874C21.8567 41.9205 40.9397 41.9827 41.7051 41.8031C41.9896 41.3707 41.9371 40.209 41.8971 39.3221C41.8833 39.0361 41.8722 38.7764 41.8722 38.5913V4.57359C41.8722 4.24342 41.8819 3.89392 41.8902 3.59001V3.58863C41.9123 2.77358 41.9233 2.37297 41.7092 2.2514C41.4122 2.08149 40.6897 2.09116 39.271 2.11188C38.688 2.12017 38.0001 2.12984 37.337 2.12984V2.12845L3.31236 2.12431C2.26385 2.11602 2.09946 2.26383 2.09532 2.75562C2.09394 2.891 2.10084 3.05816 2.10913 3.24879C2.11742 3.46844 2.12709 3.71848 2.12847 4.01687C2.13123 5.41211 2.1188 8.18464 2.10361 11.623ZM16.3144 29.0843C15.5656 29.8026 14.5613 30.7683 13.9908 31.4162L17.4651 31.4175V33.4993H11.9629C11.3896 33.4993 11.0442 33.4386 10.8025 33.1968C10.5621 32.9564 10.5027 32.6111 10.5027 32.0392V26.5369H12.5845V30.014C13.2269 29.449 14.1842 28.453 14.8874 27.7208C15.1664 27.4307 15.4054 27.1821 15.5767 27.0108L19.3397 23.2091L20.8828 24.6195L20.5816 24.8709C19.761 25.5589 18.9087 26.4471 18.1033 27.2871C17.7331 27.6752 17.3698 28.0524 17.0645 28.3577H17.0631C16.8821 28.54 16.6197 28.7914 16.3144 29.0843ZM28.0413 33.5353C27.5744 33.5159 27.1752 33.4993 26.8809 33.4993H26.5356V31.4175H29.9615C29.3578 30.7669 28.2278 29.601 27.0674 28.4254C25.5216 26.8602 23.933 25.2937 23.4674 24.9165L23.1829 24.6872L24.6209 23.1207L24.8723 23.4218C25.2315 23.8514 27.1973 25.8504 28.9779 27.6089C29.9519 28.5704 30.865 29.4573 31.4148 29.967L31.4176 26.5369H33.498V26.8809C33.498 27.1268 33.5063 27.515 33.5173 27.9764C33.556 29.6769 33.6182 32.3528 33.3184 33.0172L33.2866 33.0891L33.2231 33.1416C32.5103 33.7259 29.8123 33.6112 28.0413 33.5353ZM30.0126 12.5845H26.5535L26.4485 10.5041H32.0392C32.6111 10.5041 32.9565 10.5635 33.1968 10.8025C33.4386 11.0442 33.498 11.3896 33.498 11.9629H33.4966L33.498 17.4651H31.4176L31.4148 13.9936C30.6964 14.629 29.5139 15.8599 28.337 17.0838C26.7704 18.7139 25.2122 20.3357 24.6306 20.6507L24.4123 20.7695L23.1994 19.6215L23.3334 19.3867C23.676 18.783 25.2937 17.2289 26.9141 15.672C28.145 14.4895 29.3786 13.3042 30.0126 12.5845ZM12.224 17.4651H10.5027V17.1211C10.5027 16.8987 10.4972 16.6431 10.4917 16.3199C10.4557 14.6083 10.388 11.2459 10.8149 10.8149H10.8135C11.2404 10.388 14.6056 10.4571 16.3185 10.4916C16.6418 10.4985 16.8987 10.5041 17.1211 10.5041H17.4651V12.5845L13.9936 12.5859C14.629 13.3056 15.8571 14.4853 17.0811 15.6623C18.7139 17.2316 20.3385 18.794 20.6521 19.3756L20.7695 19.5939L19.6229 20.8012L19.3894 20.67C18.7899 20.3329 17.2316 18.7098 15.6693 17.0852C14.4854 15.853 13.2987 14.6193 12.5818 13.9866L12.5666 17.4651H12.224ZM36.2981 7.70667H7.56716L7.70392 36.2954H36.4335L36.2981 7.70667ZM12.7158 38.3965C10.5828 38.4476 6.53386 38.5443 5.8984 38.0208L5.83485 37.9683L5.8017 37.8964C5.49088 37.2071 5.5558 24.2742 5.60139 15.3377C5.61797 11.9352 5.63178 9.11435 5.62349 7.78127C5.62211 7.62655 5.61797 7.47321 5.61382 7.3323C5.61106 7.20797 5.60691 7.09331 5.60691 6.97727C5.60277 5.99231 5.77406 5.62347 7.21213 5.61795L34.2688 5.62485V5.62347C34.9126 5.62347 35.3574 5.61657 35.7331 5.60966C36.8908 5.58894 37.5028 5.57927 37.8882 5.8072C38.3979 6.10974 38.3924 6.6112 38.3813 7.6749C38.3786 7.83514 38.3772 8.01058 38.3772 8.19846V32.1787C38.3772 32.4605 38.3938 32.8335 38.4131 33.2673C38.4836 34.9208 38.5899 37.4074 38.0194 38.1037L37.9932 38.1354L37.9642 38.1589C37.5152 38.5015 24.038 38.4283 17.1916 38.3924C15.7604 38.3841 14.6484 38.3786 13.7753 38.3786C13.5073 38.3786 13.1564 38.3869 12.7158 38.3965ZM4.08458 43.954C2.19755 43.9554 0.470759 43.9554 0.103299 42.0007C-0.0528031 41.1677 0.00659556 19.9655 0.0356056 9.51496C0.0425127 6.8709 0.0480379 4.91756 0.0480379 4.15501V4.09008C0.0466565 2.17404 0.0452742 0.455543 2.04144 0.0991337C2.88964 -0.0514422 23.9302 0.00657784 34.4014 0.0355879C37.0842 0.0438765 39.0721 0.0494022 39.8457 0.0480208H39.9147C41.8308 0.0466393 43.541 0.0466394 43.9002 2.04142C44.0507 2.87995 43.9941 23.955 43.9651 34.4194C43.9582 37.0952 43.9526 39.0762 43.9526 39.847C43.9554 43.5147 43.2661 44.0148 40.4065 44.0162C39.9741 44.0162 39.4975 44.0037 38.9629 43.9899C38.3081 43.9734 37.5635 43.9554 36.6394 43.9554H4.15504V43.954H4.08458Z" fill="#0077FF"/>
</svg>
